PathFileType	4	(X/Y/Z)	D:\TRACE\spot_10-12-23\spot_body_motion_1_5-platform.trc
DataRate	CameraRate	NumFrames	NumMarkers	Units	OrigDataRate	OrigDataStartFrame	OrigNumFrames
100.00	100.00	      24	5	mm	100.00	876	      7000
Frame#	Time	Left_Front			Right_Front			Left_Aft			Right_Aft			Post			
		X1	Y1	Z1	X2	Y2	Z2	X3	Y3	Z3	X4	Y4	Z4	X5	Y5	Z5	

876	8.750	-804.73547	-11.18574	-645.47943	767.89813	-6.48263	-638.52704	-721.82178	17.20458	492.08713	695.63660	24.01222	578.18170	-21.83287	717.81555	-982.54077	
877	8.760	-803.84534	-11.35591	-645.52563	768.70300	-6.80839	-638.74237	-721.01263	17.38577	491.98318	696.46796	24.28737	578.10114	-20.95178	717.36682	-983.21539	
878	8.770	-803.20337	-11.67395	-645.74109	769.51202	-7.32709	-638.79926	-720.09619	17.79289	491.95721	697.14258	24.35950	577.95142	-19.99121	716.77661	-983.50427	
879	8.780	-802.24207	-12.25221	-645.68701	770.33362	-7.63956	-638.83398	-719.33099	18.04999	491.79333	697.83850	24.75215	577.87866	-19.11763	716.12146	-984.10187	
880	8.790	-801.44568	-12.52759	-645.76770	771.07318	-7.95103	-639.10345	-718.39563	18.37550	491.68961	698.95593	25.23122	577.81262	-18.60702	715.76758	-984.58014	
881	8.800	-800.43933	-13.07330	-645.85504	772.00604	-8.41913	-639.09625	-717.64984	18.49435	491.50607	699.95966	25.55186	577.74323	-17.72594	715.27472	-985.11536	
882	8.810	-799.95660	-13.15212	-645.87689	772.90442	-8.80157	-639.21222	-716.67145	18.79195	491.41455	700.37677	25.70497	577.68750	-16.83579	714.57776	-985.58014	
883	8.820	-798.82086	-13.62414	-646.17426	773.87933	-9.12449	-639.37805	-716.01868	19.01879	491.35437	701.35419	26.12201	577.51300	-15.96361	713.97046	-985.91534	
884	8.830	-797.88513	-13.90553	-646.25439	774.56281	-9.39506	-639.27234	-714.98090	19.12297	491.53848	702.52484	26.58018	577.40002	-14.97071	713.49951	-986.39288	
885	8.840	-797.19128	-14.20047	-646.23425	775.32990	-9.71914	-639.44019	-714.05585	19.47812	491.20877	703.19080	26.76638	577.29132	-14.02918	712.94373	-986.81207	
886	8.850	-796.01025	-14.84777	-646.27277	776.59094	-10.04551	-639.52002	-713.20734	19.59822	491.30460	704.01776	26.91988	577.19275	-13.18403	712.27533	-987.33038	
887	8.860	-795.31042	-15.15985	-646.38745	777.48108	-10.44586	-639.40918	-712.36823	19.94642	490.86807	704.82941	27.20498	577.09564	-12.43197	711.82263	-987.86688	
888	8.870	-794.54773	-15.33095	-646.45184	778.03491	-10.72277	-639.52472	-711.49445	20.13708	490.85709	705.89099	27.46688	577.11328	-11.53435	711.47583	-988.25586	
889	8.880	-793.35400	-15.71899	-646.43506	779.05017	-11.13306	-639.62561	-710.37726	20.24030	491.02631	706.80811	27.72290	576.94183	-10.62893	711.02789	-988.75885	
890	8.890	-792.63293	-15.98128	-646.63239	780.13287	-11.54782	-639.51849	-709.68634	20.65801	490.71158	707.63049	28.12115	576.80133	-9.83785	710.42963	-989.10327	
891	8.900	-791.71906	-16.13789	-646.59369	780.95374	-11.74020	-639.53235	-708.68939	20.83243	490.77725	708.56519	28.33314	576.68665	-8.82862	709.96100	-989.54114	
892	8.910	-790.62360	-16.62658	-646.62512	781.83398	-11.95946	-639.69220	-707.78094	20.96881	490.45679	709.61407	28.60972	576.68646	-7.82514	709.67273	-989.96063	
893	8.920	-789.75311	-16.86205	-646.70880	782.91504	-12.31037	-639.74323	-706.73553	21.21724	490.45761	710.45331	28.84125	576.66412	-6.87695	709.31213	-990.06726	
894	8.930	-788.65070	-17.20997	-646.75531	783.78320	-12.52526	-639.87762	-706.06598	21.31214	490.45813	711.29596	29.03512	576.48254	-5.93883	708.83411	-990.43079	
895	8.940	-787.87415	-17.27216	-647.01019	784.52753	-12.81700	-640.09454	-704.99670	21.59609	490.38849	712.34991	29.15980	576.42426	-4.72805	708.31311	-990.68213	
896	8.950	-786.92053	-17.74690	-646.99963	785.42438	-13.07614	-640.10413	-704.05469	21.64340	490.34113	713.30884	29.44624	576.43787	-4.10733	707.99353	-990.98785	
897	8.960	-786.03809	-17.92753	-646.90015	786.70490	-13.27336	-640.05762	-703.20679	21.86391	490.23740	714.21527	29.71672	576.29865	-3.27640	707.71637	-991.51648	
898	8.970	-785.11627	-18.17877	-647.12140	787.50775	-13.48010	-640.10803	-702.20142	22.08842	490.07788	714.98224	29.84233	576.24384	-2.28687	707.45929	-991.88617	
899	8.980	-784.17023	-18.30615	-647.03076	788.29645	-13.59238	-640.17010	-701.30029	22.08066	489.95154	716.00983	30.00312	576.38538	-1.15613	706.91968	-992.08606	
